<?xml version="1.0" encoding="UTF-8"?>
<svg id="Layer_2" data-name="Layer 2" xmlns="http://www.w3.org/2000/svg" viewBox="0 0 447.68 447.68">
  <defs>
    <style>
      .cls-1 {
        fill: #fff;
        opacity: .23;
      }

      .cls-1, .cls-2, .cls-3, .cls-4 {
        stroke-width: 0px;
      }

      .cls-2 {
        fill: #39488d;
      }

      .cls-3 {
        fill: #fcee23;
      }

      .cls-4 {
        fill: #f5f5dd;
      }
    </style>
  </defs>
  <g id="Layer_1-2" data-name="Layer 1">
    <circle class="cls-1" cx="223.84" cy="223.84" r="223.84"/>
    <g>
      <path class="cls-4" d="M379.82,155.52L241.05,54.7c-10.29-7.47-24.12-7.47-34.41,0l-138.77,100.82c-10.29,7.47-14.57,20.63-10.64,32.73l53.01,163.13c3.93,12.1,15.12,20.23,27.84,20.23h171.53c12.72,0,23.91-8.13,27.84-20.23l53.01-163.13c3.93-12.1-.34-25.25-10.64-32.73Z"/>
      <g>
        <path class="cls-2" d="M402.47,319.81c-5.17-2.45-10.28-4.95-15.35-7.49-2.03-1.02-2.57-3.68-1.11-5.42,3.63-4.34,7.19-8.71,10.7-13.1,2.07-2.6-.26-6.37-3.51-5.66-9.19,2.02-18.4,3.86-27.64,5.55l.08-.23,33.29-102.46c5.13-15.78-.45-32.94-13.88-42.69L246.28,47.49c-13.43-9.75-31.46-9.75-44.89,0L62.63,148.31c-13.43,9.75-19,26.91-13.87,42.69l33.29,102.46.07.23c-9.24-1.69-18.45-3.53-27.64-5.55-3.25-.71-5.58,3.06-3.51,5.66,3.5,4.39,7.07,8.76,10.7,13.1,1.46,1.75.93,4.4-1.11,5.42-5.07,2.54-10.18,5.04-15.35,7.49-3.03,1.44-2.53,5.91.75,6.63,10.66,2.35,21.36,4.48,32.09,6.4,1.92.34,3.76-.95,4.1-2.87,1.24-7.1,2.48-14.19,3.72-21.29h0c.1-.56.34-1.05.65-1.48l2.13,6.56.95,2.93c-1.17,1.6-2.01,3.49-2.36,5.58-.99,5.83-1.98,11.65-2.97,17.48-1.24,7.3,3.73,14.22,11.05,15.34,2.39.37,4.78.72,7.17,1.07,5.68,14.66,19.72,24.36,35.59,24.36h171.53c15.87,0,29.91-9.7,35.59-24.36,2.39-.35,4.78-.7,7.16-1.07,7.32-1.12,12.3-8.04,11.06-15.34-.99-5.83-1.98-11.66-2.97-17.48-.35-2.09-1.19-3.97-2.36-5.57l.95-2.93,2.13-6.57c.32.43.55.92.65,1.48,1.24,7.1,2.48,14.19,3.72,21.28.34,1.93,2.17,3.22,4.1,2.87,10.73-1.92,21.42-4.05,32.09-6.4,3.28-.72,3.78-5.2.74-6.63ZM309.61,371.61h-171.53c-10.38,0-19.73-5.41-24.96-13.98,73.5,9.7,147.96,9.7,221.45,0-5.23,8.56-14.58,13.98-24.96,13.98ZM355.62,295.45c-14.49,2.46-29.04,4.52-43.62,6.16-1.93.22-3.33,1.95-3.12,3.89.13,1.16.25,2.32.38,3.48.21,1.94,1.96,3.35,3.9,3.13,12.96-1.46,25.89-3.26,38.78-5.35l-1.57,4.83c-1.61-.38-3.31-.46-5.04-.2-80.53,12.34-162.47,12.34-242.99,0-1.73-.26-3.43-.18-5.03.2l-1.57-4.82c12.89,2.09,25.82,3.89,38.78,5.35,1.94.22,3.69-1.19,3.9-3.13.12-1.16.25-2.32.37-3.48.21-1.93-1.19-3.67-3.12-3.88-14.58-1.64-29.12-3.71-43.61-6.16l-34.83-107.2c-3.93-12.1.34-25.25,10.64-32.73L206.64,54.7c10.29-7.47,24.12-7.47,34.41,0l138.77,100.82c10.29,7.47,14.56,20.63,10.64,32.73l-34.83,107.2Z"/>
        <path class="cls-2" d="M186.96,167.77c-.13,6.45,1.57,12.47,4.76,18.07,2.27,3.99,5.28,7.35,8.86,10.2,2.78,2.21,6.76,1.82,8.82-.78,2.27-2.87,1.83-6.65-1.07-9-5.8-4.7-8.77-10.77-8.86-18.23-.08-4.02.92-7.77,2.9-11.21,4.08-7.11,10.32-11.04,18.41-11.79,5.52-.51,10.66.96,15.16,4.29,7.35,5.43,10.43,12.83,9.43,21.81-.69,6.14-3.7,11.18-8.57,15.05-1,.8-1.81,1.73-2.23,2.97-.9,2.66-.07,5.41,2.14,7.11,2.1,1.61,5.04,1.66,7.33.08,2.14-1.47,3.96-3.31,5.62-5.28,9.6-11.39,11.13-27.28,3.91-40.27-7.5-13.51-22.86-20.67-38.03-17.62-7.26,1.46-13.51,4.88-18.66,10.26-6.53,6.82-9.74,14.99-9.92,24.36Z"/>
        <path class="cls-2" d="M235.47,203.94c.91-2.97-.99-5.63-4.13-5.68-2.93-.04-5.85,0-8.78,0h0c-2.93,0-5.85-.02-8.78,0-2.6.02-4.44,1.74-4.48,4.13-.05,2.47,1.73,4.4,4.31,4.42,5.92.06,11.84.04,17.76,0,1.97-.01,3.59-1.24,4.09-2.87Z"/>
        <path class="cls-2" d="M232.29,212.39c-.15-1.97-1.56-3.25-3.65-3.26-1.99-.01-3.97,0-5.96,0h0c-1.95,0-3.9.01-5.85,0-.6,0-1.18.06-1.75.24-1.27.4-2.18,1.57-2.23,2.86-.09,2.29,1.2,3.73,3.62,3.77,3.94.07,7.87.02,11.81.01.28,0,.55-.05.83-.1,1.96-.31,3.31-1.82,3.18-3.52Z"/>
        <path class="cls-2" d="M226.89,217.93c-1.42-.01-2.83,0-4.25,0h0c-1.39,0-2.78.01-4.17,0-.43,0-.84.06-1.25.24-.91.4-1.55,1.57-1.59,2.86-.07,2.29.85,3.73,2.58,3.77,2.8.07,5.61.02,8.42.01.2,0,.39-.05.59-.1,1.39-.31,2.36-1.82,2.27-3.52-.11-1.97-1.11-3.25-2.6-3.26Z"/>
        <path class="cls-2" d="M223.53,263.77c10.09-12.92,24.69-19.96,41.31-22.84,1.04-.18,1.41-1.48.61-2.17-7.29-6.29-14.58-12.55-21.88-18.86-.32-.27-.75-.37-1.15-.26-7.62,2.17-13.47,6.62-16.83,13.57-.08.16-.12.34-.13.53-.1,2.84-.9,9.5-1.61,15.08-.18,1.44-2.27,1.45-2.47.02-.79-5.57-1.66-12.19-1.75-14.82,0-.15-.04-.31-.09-.45-3-7.24-9.27-11.72-16.9-13.92-.4-.12-.84-.02-1.15.26-7.06,6.16-14.63,12.62-21.84,18.85-.8.69-.43,1.99.61,2.17,16.13,2.74,31.59,10.19,41.31,22.85.5.65,1.47.65,1.97,0Z"/>
        <path class="cls-2" d="M293.32,250.64c.07-.39-.16-.52-.33-.67-3.18-2.85-6.36-5.7-9.55-8.54-9.26-8.25-18.52-16.5-27.77-24.77-.52-.47-1.05-.68-1.74-.62-1.95.17-3.76.82-5.56,1.56-.69.28-.76.59-.18,1.05.16.13.29.28.45.41,7.32,6.26,14.63,12.51,21.95,18.76,2.03,1.74,4.06,3.47,6.25,5.34.3.25.13.74-.26.76-1.9.07-3.61.1-5.31.26-7.37.68-14.48,2.47-21.39,5.12-11.48,4.41-20.26,12-26.71,22.37-.13.21-.38.41-.18.86,9.08-9.48,20-15.85,32.47-19.59,12.43-3.74,25.07-4.59,37.88-2.31Z"/>
        <path class="cls-2" d="M222.15,272.06c-.4-.63-.8-1.26-1.22-1.88-4.36-6.48-9.55-12.16-16.33-16.19-10.28-6.11-21.45-9.32-33.39-9.91-.9-.04-1.8-.11-2.7-.17-.39-.03-.54-.51-.24-.76,0,0,0,0,0,0,7.24-6.18,14.5-12.36,21.74-18.54,2.27-1.94,4.51-3.9,6.75-5.87.35-.3.99-.67.06-1.07-1.74-.77-3.53-1.38-5.44-1.61-.83-.1-1.47.14-2.11.72-5.82,5.24-11.67,10.44-17.51,15.65-6.58,5.86-13.16,11.72-19.73,17.59-.16.14-.42.27-.32.46,26.96-3.69,50.65,2.77,70.5,21.95-.03-.17-.02-.28-.07-.36Z"/>
        <path class="cls-2" d="M210.61,265.24c.03-.08.06-.15.09-.23-.29-.22-.57-.46-.87-.66-9.71-6.41-20.34-10.47-31.84-12.27-.61-.1-1.12,0-1.58.45-2.5,2.49-5.01,4.96-7.51,7.45-.16.16-.45.32-.35.57.13.35.48.16.72.12,5.37-.74,10.75-.68,16.14-.24,7.15.58,14.17,1.93,21.11,3.72,1.37.35,2.74.72,4.1,1.09Z"/>
        <path class="cls-2" d="M276.51,260.59c.17-.33-.24-.51-.44-.71-2.19-2.17-4.44-4.28-6.55-6.52-1.05-1.12-2.13-1.54-3.57-1.08-.1.03-.2.04-.3.06-8.92,1.57-17.38,4.45-25.27,8.92-2.06,1.16-4.08,2.37-6.17,3.86.59.12.91-.02,1.23-.11,5.45-1.52,10.96-2.79,16.56-3.65,7.87-1.2,15.75-1.75,23.68-.69.28.04.67.26.84-.07Z"/>
        <path class="cls-2" d="M320.89,166.66c.4,1.09.8,2.17.8,2.17,1.15.61,2.11,1.68,2.6,3.04,0,0,.34.93.68,1.86.3.94.52,1.91.52,1.91l.99,3.83c.36,1.41.17,2.81-.44,3.94.13-.03.8,4.56.8,4.56,1.35-.99,2.41-2.39,3.05-4.04.55-1.63.58-3.48.11-5.35l-1.02-3.97s-.23-1-.54-1.97c-.35-.96-.7-1.93-.7-1.93-1.33-3.63-4.37-6.03-7.67-6.23,0,0,.14.25.28.67.15.41.35.95.55,1.49Z"/>
        <path class="cls-2" d="M324.67,182.92c-.37-1.45-1.82-2.35-3.22-1.99-1.4.36-2.26,1.76-1.9,3.13.34-.07,2.47,14.99,2.09,15.02.07,1.41,1.31,2.52,2.75,2.47,1.45-.05,2.56-1.31,2.49-2.81.39-.03-1.85-15.9-2.21-15.83Z"/>
        <path class="cls-2" d="M313.77,169.51c-.18-.5-.37-1.01-.5-1.39-.13-.38-.26-.62-.26-.62-2.2,2.47-3.22,5.84-2.09,8.84,0,0,.3.8.59,1.61.26.82.44,1.65.44,1.65l.85,3.32c.39,1.56,1.3,2.89,2.45,3.96,1.06,1.09,2.45,1.91,4.03,2.35,0,0-.61-4.25-.74-4.22-1.07-.7-1.89-1.72-2.22-2.99l-.88-3.45s-.2-.87-.46-1.72c-.31-.84-.62-1.67-.62-1.67-.45-1.23-.36-2.52.14-3.67l-.74-2.01Z"/>
        <path class="cls-2" d="M298.69,143.93c-1.45,3.02-1.43,6.51.5,9.07,0,0,.54.67,1.01,1.39l.89,1.47,1.78,2.93c1.78,2.68,4.7,4.27,7.99,4.23,0,0-.46-.97-.93-1.93-.23-.48-.46-.97-.64-1.33-.17-.37-.3-.6-.3-.6-1.23-.36-2.32-1.11-3-2.22l-1.85-3.05s-.46-.76-.92-1.53c-.48-.75-1.04-1.44-1.04-1.44-.79-1.05-1.06-2.31-.91-3.56l-2.57-3.44Z"/>
        <path class="cls-2" d="M310.75,144.93s.62.77,1.15,1.61c.52.84,1.03,1.69,1.03,1.69l2.06,3.38c.75,1.24.97,2.64.72,3.89,0,0,.15.25.33.64.19.39.44.91.69,1.43.5,1.04,1.01,2.09,1.01,2.09,2.02-2.63,2.5-6.65.38-9.9l-2.13-3.5s-.53-.87-1.07-1.75c-.56-.86-1.19-1.66-1.19-1.66-2.31-3.11-5.94-4.51-9.12-3.8l2.78,3.71c1.28.26,2.5,1.01,3.37,2.17Z"/>
        <path class="cls-2" d="M317.8,162.58c-.87-1.8-1.74-3.61-2.39-4.96-.62-1.37-1.17-2.21-1.17-2.21-.78-1.28-2.42-1.72-3.67-.98-1.24.74-1.66,2.32-.92,3.53,0,0,.52.79,1.11,2.1.62,1.28,1.44,2.99,2.27,4.71.41.86.83,1.71,1.21,2.51.31.84.59,1.62.84,2.28.49,1.34.82,2.23.82,2.23.48,1.33,2,2.03,3.37,1.58,1.37-.46,2.07-1.97,1.56-3.38,0,0-.34-.94-.86-2.35-.26-.7-.56-1.53-.89-2.41-.41-.85-.84-1.75-1.27-2.65Z"/>
        <path class="cls-2" d="M292.46,137.07c-1.27-.02-2.53-.41-3.5-1.3l-2.64-2.4s-.66-.6-1.32-1.2c-.32-.31-.68-.58-.95-.78-.27-.2-.45-.33-.45-.33-1.05-.78-1.67-1.91-1.88-3.15l-3.43-2.57c-.54,3.3.46,6.64,3.04,8.55,0,0,.17.13.43.32.26.19.61.44.91.75.63.58,1.27,1.16,1.27,1.16l2.54,2.31c2.47,2.06,5.69,2.81,8.86,1.82l-2.88-3.18Z"/>
        <path class="cls-2" d="M290.18,122.9s.2.15.49.37c.3.22.69.52,1.05.86.73.66,1.47,1.33,1.47,1.33l2.93,2.66c1.07.98,1.69,2.24,1.78,3.53l3.12,3.42c1.18-3.07.54-7.1-2.41-9.61l-3.03-2.75s-.76-.69-1.52-1.37c-.37-.36-.78-.66-1.09-.89-.31-.23-.51-.38-.51-.38-3.09-2.33-6.98-2.65-9.83-1.07l3.71,2.77c1.3-.11,2.69.26,3.85,1.13Z"/>
        <path class="cls-2" d="M296.98,132.44c-.32-.3-.5-.47-.5-.47-1.11-1.01-2.81-.97-3.8.09-.98,1.06-.94,2.69.11,3.64,0,0,.17.16.48.44.28.31.68.75,1.16,1.28.96,1.05,2.24,2.46,3.51,3.87.63.71,1.31,1.38,1.85,2.09.53.71,1.03,1.38,1.46,1.95.85,1.14,1.42,1.9,1.42,1.9.85,1.13,2.5,1.38,3.69.55,1.19-.83,1.43-2.47.53-3.68,0,0-.6-.8-1.5-2-.45-.6-.97-1.3-1.54-2.05-.57-.74-1.29-1.45-1.95-2.2-1.35-1.48-2.69-2.96-3.7-4.07-.51-.56-.93-1.02-1.22-1.34Z"/>
        <path class="cls-2" d="M258.85,120.56c.04-.1,3.12,1.42,3.12,1.42l3.09,1.49c2.96,1.26,6.23,1.12,9.01-.74l-3.66-2.23c-1.19.29-2.54.31-3.71-.28l-3.21-1.55s-3.2-1.58-3.24-1.48c-1.23-.45-2.15-1.35-2.7-2.47l-4.03-1.48c.41,3.32,2.32,6.22,5.34,7.31Z"/>
        <path class="cls-2" d="M264.23,107.52c.04-.1,3.6,1.63,3.6,1.63l3.57,1.72c1.3.65,2.27,1.64,2.69,2.9l3.96,2.4c.25-3.25-1.47-6.99-5.02-8.55l-3.69-1.78s-3.68-1.79-3.73-1.69c-3.63-1.34-7.46-.54-9.76,1.78l4.35,1.59c1.22-.48,2.66-.52,4.02-.02Z"/>
        <path class="cls-2" d="M273.44,114.8c-.37-.24-.6-.33-.6-.33-1.35-.65-2.98-.13-3.62,1.16-.65,1.29-.14,2.84,1.13,3.45,0,0,.22.09.57.31.36.22.86.52,1.47.9,1.22.74,2.84,1.73,4.46,2.71,1.67.92,3.16,2.1,4.3,2.96,1.14.85,1.9,1.42,1.9,1.42,1.13.84,2.79.62,3.7-.51.91-1.12.67-2.77-.53-3.67,0,0-.8-.6-2-1.5-1.2-.9-2.78-2.14-4.53-3.11-1.71-1.04-3.42-2.08-4.7-2.86-.64-.39-1.18-.71-1.55-.94Z"/>
        <path class="cls-2" d="M236.91,114.66l3.39.51c.8.13,1.6.08,2.37,0,.76-.05,1.51-.21,2.23-.49,1.44-.54,2.77-1.5,3.83-2.76l-4.15-1.07c-1.05.57-2.33.92-3.62.74l-3.53-.54-3.52-.54c-1.3-.12-2.44-.67-3.29-1.59l-4.29-.22c1.33,3.06,4,5.22,7.2,5.42l3.39.53Z"/>
        <path class="cls-2" d="M234.99,100.11l3.91.59,3.91.6c1.44.21,2.64.94,3.39,2.07l4.49,1.15c-.34-1.62-1.19-3.14-2.43-4.37-.62-.62-1.34-1.16-2.14-1.61-.81-.42-1.71-.65-2.66-.81l-4.05-.62-4.05-.61c-3.85-.27-7.3,1.67-8.85,4.55l4.62.23c1.03-.8,2.4-1.31,3.85-1.17Z"/>
        <path class="cls-2" d="M242.06,106.47c-.26,1.45.69,2.7,2.06,3.02,0,0,3.68.95,7.36,1.89,1.87.38,3.6,1.2,4.95,1.65,1.34.49,2.23.82,2.23.82,1.33.48,2.86-.21,3.41-1.54.56-1.34-.14-2.84-1.55-3.36,0,0-.94-.34-2.35-.86-1.42-.47-3.25-1.32-5.22-1.73-3.88-1-7.75-1.99-7.75-1.99-1.46-.33-2.89.72-3.14,2.12Z"/>
        <path class="cls-2" d="M205.01,115.18c.77.08,1.57.13,2.37,0l3.39-.51,3.39-.53c3.2-.21,5.87-2.36,7.2-5.42l-4.29.22c-.84.92-1.99,1.47-3.29,1.59l-3.53.54-3.53.54c-1.3.18-2.57-.16-3.62-.74l-4.15,1.07c1.05,1.26,2.39,2.22,3.83,2.76.72.27,1.47.44,2.23.49Z"/>
        <path class="cls-2" d="M204.87,101.3l3.91-.6,3.91-.59c1.44-.14,2.82.37,3.85,1.17l4.62-.23c-1.55-2.88-4.99-4.82-8.85-4.55l-4.05.61-4.05.62c-.95.16-1.85.39-2.66.81-.8.45-1.52.99-2.14,1.61-1.25,1.23-2.09,2.75-2.43,4.37l4.49-1.15c.75-1.13,1.95-1.86,3.39-2.07Z"/>
        <path class="cls-2" d="M213.41,105.29c.15,1.41,1.43,2.55,2.84,2.47l7.59-.39c3.8.19,7.59.39,7.59.39,1.41.08,2.68-1.06,2.84-2.47.16-1.46-.94-2.68-2.44-2.76,0,0-4-.2-7.99-.4-4,.2-7.99.4-7.99.4-1.5.08-2.59,1.3-2.44,2.76Z"/>
        <path class="cls-2" d="M187.44,117.2c-.04-.1-3.24,1.48-3.24,1.48l-3.21,1.55c-1.17.58-2.52.57-3.71.28l-3.66,2.23c2.78,1.86,6.05,2,9.01.74l3.09-1.49s3.08-1.52,3.12-1.42c3.01-1.09,4.92-3.99,5.34-7.31l-4.03,1.48c-.55,1.12-1.47,2.03-2.7,2.47Z"/>
        <path class="cls-2" d="M173.59,113.78c.42-1.26,1.39-2.26,2.69-2.9l3.57-1.72s3.56-1.73,3.6-1.63c1.36-.5,2.8-.46,4.02.02l4.35-1.59c-2.3-2.32-6.12-3.13-9.76-1.78-.04-.1-3.73,1.69-3.73,1.69l-3.69,1.78c-3.55,1.56-5.27,5.3-5.02,8.55l3.96-2.4Z"/>
        <path class="cls-2" d="M187.16,108.94c-1.41.52-2.1,2.02-1.55,3.36s2.09,2.03,3.41,1.55c0,0,.89-.33,2.23-.82,1.35-.44,3.08-1.26,4.95-1.65,3.68-.95,7.36-1.89,7.36-1.89,1.37-.31,2.32-1.57,2.06-3.02-.25-1.4-1.68-2.45-3.14-2.12,0,0-3.88,1-7.75,1.99-1.96.41-3.79,1.26-5.22,1.73-1.41.52-2.35.86-2.35.86Z"/>
        <path class="cls-2" d="M163.73,136.12l1.27-1.16c.31-.3.65-.56.91-.75.26-.19.43-.32.43-.32,2.58-1.91,3.58-5.25,3.04-8.55l-3.43,2.57c-.21,1.24-.83,2.37-1.88,3.15,0,0-.18.13-.45.33-.27.19-.63.46-.95.78-.66.6-1.32,1.2-1.32,1.2l-2.64,2.4c-.96.88-2.23,1.28-3.5,1.3l-2.88,3.18c3.17.98,6.39.24,8.86-1.82l2.54-2.31Z"/>
        <path class="cls-2" d="M149.79,131.65c.09-1.29.71-2.55,1.78-3.53l2.93-2.66s.73-.66,1.47-1.33c.36-.35.75-.64,1.05-.86.3-.22.49-.37.49-.37,1.16-.87,2.55-1.24,3.85-1.13l3.71-2.77c-2.86-1.57-6.74-1.25-9.84,1.07,0,0-.2.15-.51.38-.31.23-.72.53-1.09.89-.76.69-1.52,1.37-1.52,1.37l-3.03,2.75c-2.95,2.51-3.59,6.54-2.41,9.61l3.12-3.42Z"/>
        <path class="cls-2" d="M161.46,123.2c-1.2.9-1.44,2.55-.53,3.67.91,1.12,2.57,1.35,3.7.51,0,0,.76-.57,1.9-1.42,1.14-.86,2.63-2.03,4.3-2.96,1.62-.99,3.25-1.97,4.46-2.71.61-.37,1.12-.68,1.47-.89.35-.23.57-.31.57-.31,1.27-.61,1.78-2.16,1.13-3.45-.65-1.29-2.27-1.82-3.62-1.16,0,0-.23.09-.6.33-.37.23-.91.55-1.55.94-1.28.78-2.99,1.82-4.7,2.86-1.75.98-3.33,2.21-4.53,3.11-1.2.9-2,1.5-2,1.5Z"/>
        <path class="cls-2" d="M144.47,152.37c-.46.76-.92,1.53-.92,1.53l-1.85,3.05c-.68,1.12-1.76,1.87-3,2.22,0,0-.14.23-.3.6-.17.36-.41.85-.64,1.33-.47.97-.93,1.93-.93,1.93,3.29.04,6.21-1.55,7.99-4.23l1.78-2.93s.44-.73.89-1.47c.46-.72,1.01-1.39,1.01-1.39,1.93-2.56,1.95-6.05.5-9.07l-2.57,3.44c.15,1.25-.13,2.51-.91,3.56,0,0-.56.7-1.04,1.44Z"/>
        <path class="cls-2" d="M130.95,157.58c.25-.52.5-1.04.69-1.43.18-.39.33-.64.33-.64-.26-1.25-.04-2.65.72-3.89l2.06-3.38s.52-.84,1.03-1.69c.54-.83,1.15-1.61,1.15-1.61.87-1.17,2.09-1.91,3.37-2.17l2.78-3.71c-3.18-.71-6.82.69-9.12,3.8,0,0-.64.8-1.19,1.66-.53.87-1.07,1.75-1.07,1.75l-2.13,3.5c-2.12,3.25-1.64,7.27.38,9.9,0,0,.5-1.04,1.01-2.09Z"/>
        <path class="cls-2" d="M140.8,144.11c-.9,1.2-.66,2.85.53,3.68,1.19.82,2.84.58,3.69-.55,0,0,.57-.76,1.42-1.9.43-.57.92-1.24,1.46-1.95.54-.71,1.22-1.37,1.85-2.09,1.28-1.41,2.56-2.81,3.51-3.87.48-.53.88-.97,1.16-1.28.31-.28.48-.44.48-.44,1.05-.95,1.09-2.58.11-3.64-.98-1.06-2.69-1.1-3.8-.09,0,0-.18.17-.5.47-.29.32-.72.79-1.22,1.34-1.01,1.11-2.36,2.59-3.7,4.07-.66.75-1.37,1.46-1.95,2.2-.56.75-1.09,1.45-1.54,2.05-.9,1.2-1.5,2-1.5,2Z"/>
        <path class="cls-2" d="M132.7,176.87c-.27.85-.46,1.72-.46,1.72l-.89,3.45c-.33,1.27-1.14,2.29-2.22,2.99-.13-.03-.74,4.22-.74,4.22,1.57-.44,2.97-1.26,4.03-2.35,1.15-1.08,2.06-2.4,2.45-3.96l.85-3.32s.19-.84.44-1.65c.3-.8.59-1.61.59-1.61,1.12-3,.1-6.38-2.09-8.84,0,0-.13.24-.26.62-.14.38-.32.88-.51,1.39-.37,1.01-.74,2.01-.74,2.01.5,1.15.6,2.45.15,3.67,0,0-.31.84-.62,1.67Z"/>
        <path class="cls-2" d="M120.84,187.98s.67-4.58.8-4.56c-.61-1.13-.8-2.53-.44-3.94l.99-3.83s.22-.97.52-1.91c.34-.93.68-1.86.68-1.86.5-1.37,1.46-2.43,2.6-3.04,0,0,.4-1.09.8-2.17.2-.54.4-1.09.55-1.49.14-.41.28-.67.28-.67-3.3.2-6.34,2.59-7.67,6.23,0,0-.35.96-.7,1.92-.31.98-.54,1.97-.54,1.97l-1.02,3.97c-.47,1.87-.44,3.72.11,5.35.64,1.65,1.7,3.05,3.05,4.04Z"/>
        <path class="cls-2" d="M128.42,173.37c1.37.45,2.89-.25,3.37-1.58,0,0,.33-.89.82-2.23.24-.67.53-1.45.84-2.29.39-.8.8-1.66,1.21-2.51.82-1.71,1.65-3.42,2.27-4.71.58-1.3,1.11-2.1,1.11-2.1.73-1.2.32-2.79-.92-3.53-1.24-.74-2.89-.3-3.67.98,0,0-.55.84-1.17,2.21-.65,1.35-1.52,3.16-2.39,4.96-.43.9-.87,1.8-1.27,2.65-.32.88-.63,1.7-.89,2.41-.52,1.41-.86,2.35-.86,2.35-.52,1.41.18,2.93,1.56,3.38Z"/>
        <path class="cls-2" d="M132.15,208.92l-.18-3.43.18-3.43c.22-3.2-1.89-6.17-4.5-7.9,0,0-.04.26-.1.66-.07.4-.14.93-.15,1.47-.05,1.07-.11,2.14-.11,2.14.82.97,1.29,2.18,1.23,3.49l-.19,3.56.19,3.56c.07,1.31-.41,2.52-1.23,3.49,0,0,.05,1.07.11,2.14,0,.54.08,1.07.15,1.47.06.4.1.66.1.66,2.61-1.72,4.72-4.7,4.5-7.89Z"/>
        <path class="cls-2" d="M119.92,216.99c-.08-.43-.15-1-.16-1.58-.06-1.16-.12-2.31-.12-2.31-.91-.91-1.52-2.2-1.59-3.65l-.19-3.95.19-3.95c.07-1.45.67-2.74,1.59-3.65,0,0,.06-1.16.12-2.31,0-.58.09-1.15.16-1.58.06-.43.11-.72.11-.72-3.3,1.11-5.37,4.27-5.61,8.13l-.2,4.08.2,4.08c.24,3.86,2.31,7.02,5.61,8.13,0,0-.04-.29-.11-.72Z"/>
        <path class="cls-2" d="M128.14,184.06c.35-1.37-.5-2.77-1.9-3.13-1.4-.36-2.85.53-3.22,1.99-.36-.07-2.6,15.8-2.21,15.83-.08,1.5,1.04,2.76,2.49,2.81,1.45.05,2.68-1.06,2.75-2.47-.38-.03,1.75-15.09,2.09-15.02Z"/>
        <path class="cls-2" d="M126.79,244.33c-.4-1.09-.8-2.17-.8-2.17-1.15-.61-2.11-1.68-2.6-3.04,0,0-.34-.93-.68-1.86-.3-.94-.52-1.91-.52-1.91l-.99-3.83c-.36-1.41-.17-2.81.44-3.94-.13.03-.8-4.56-.8-4.56-1.35.99-2.41,2.39-3.05,4.04-.55,1.63-.58,3.48-.11,5.35l1.02,3.97s.23,1,.54,1.97c.35.96.7,1.93.7,1.93,1.33,3.63,4.37,6.03,7.67,6.23,0,0-.14-.25-.28-.67-.15-.41-.35-.95-.55-1.49Z"/>
        <path class="cls-2" d="M123.02,228.06c.37,1.45,1.82,2.35,3.22,1.99,1.4-.36,2.26-1.76,1.9-3.13-.34.07-2.47-14.99-2.09-15.02-.07-1.41-1.31-2.52-2.75-2.47-1.45.05-2.56,1.31-2.49,2.81-.39.03,1.85,15.9,2.21,15.83Z"/>
        <path class="cls-2" d="M133.91,241.47c.18.5.37,1.01.51,1.39.13.38.26.62.26.62,2.2-2.47,3.22-5.84,2.09-8.84,0,0-.3-.8-.59-1.61-.26-.82-.44-1.65-.44-1.65l-.85-3.32c-.39-1.56-1.3-2.89-2.45-3.96-1.06-1.09-2.46-1.91-4.03-2.35,0,0,.61,4.25.74,4.22,1.07.69,1.89,1.72,2.22,2.99l.89,3.45s.2.87.46,1.72c.31.84.62,1.67.62,1.67.45,1.23.35,2.52-.15,3.67,0,0,.37,1.01.74,2.01Z"/>
        <path class="cls-2" d="M149,267.05c1.45-3.02,1.43-6.51-.5-9.07,0,0-.54-.67-1.01-1.39-.44-.73-.89-1.47-.89-1.47l-1.78-2.93c-1.78-2.68-4.7-4.27-7.99-4.23,0,0,.46.97.93,1.93.23.48.46.97.64,1.33.17.37.3.6.3.6,1.23.36,2.32,1.11,3,2.22l1.85,3.05s.46.76.92,1.53c.48.75,1.04,1.44,1.04,1.44.79,1.05,1.06,2.31.91,3.56l2.57,3.44Z"/>
        <path class="cls-2" d="M136.93,266.05s-.62-.78-1.15-1.61c-.52-.84-1.03-1.69-1.03-1.69l-2.06-3.38c-.75-1.24-.97-2.64-.72-3.89,0,0-.15-.25-.33-.64-.19-.39-.44-.91-.69-1.43-.5-1.04-1.01-2.09-1.01-2.09-2.02,2.63-2.5,6.65-.38,9.9l2.13,3.5s.53.87,1.07,1.75c.56.86,1.19,1.66,1.19,1.66,2.31,3.11,5.94,4.51,9.12,3.8l-2.78-3.71c-1.28-.26-2.5-1.01-3.37-2.17Z"/>
        <path class="cls-2" d="M129.88,248.4c.87,1.8,1.74,3.61,2.39,4.96.62,1.37,1.17,2.21,1.17,2.21.78,1.28,2.42,1.72,3.67.98,1.24-.74,1.66-2.32.92-3.53,0,0-.52-.8-1.11-2.1-.62-1.28-1.44-2.99-2.27-4.71-.41-.86-.83-1.71-1.21-2.51-.31-.84-.59-1.62-.84-2.28-.49-1.34-.81-2.23-.81-2.23-.49-1.33-2-2.03-3.37-1.58-1.37.45-2.07,1.97-1.56,3.38,0,0,.34.94.86,2.35.26.7.56,1.53.89,2.41.41.85.84,1.75,1.27,2.65Z"/>
        <path class="cls-2" d="M166.34,277.09s-.17-.13-.43-.32c-.26-.19-.61-.44-.91-.75-.63-.58-1.27-1.16-1.27-1.16l-2.54-2.31c-2.47-2.06-5.69-2.81-8.86-1.82l2.88,3.18c1.27.02,2.53.41,3.5,1.3l2.64,2.4s.66.6,1.32,1.2c.32.31.68.58.95.78.27.2.45.33.45.33,1.05.78,1.67,1.91,1.88,3.15l3.43,2.57c.54-3.3-.46-6.64-3.04-8.55Z"/>
        <path class="cls-2" d="M157.51,288.08s-.2-.15-.49-.37c-.3-.22-.7-.52-1.05-.86-.73-.66-1.47-1.33-1.47-1.33l-2.93-2.66c-1.07-.98-1.69-2.24-1.78-3.53l-3.12-3.42c-1.18,3.07-.54,7.1,2.41,9.61l3.03,2.75s.76.69,1.52,1.37c.37.36.78.66,1.09.89.31.23.51.38.51.38,3.09,2.33,6.98,2.65,9.84,1.07l-3.71-2.77c-1.3.11-2.69-.26-3.85-1.13Z"/>
        <path class="cls-2" d="M150.71,278.54c.32.3.5.47.5.47,1.11,1.01,2.81.97,3.8-.09.98-1.06.94-2.69-.11-3.64,0,0-.17-.16-.48-.44-.28-.31-.68-.75-1.16-1.28-.96-1.05-2.24-2.46-3.51-3.87-.63-.71-1.31-1.38-1.85-2.09-.53-.71-1.03-1.38-1.46-1.95-.85-1.14-1.42-1.9-1.42-1.9-.85-1.13-2.5-1.38-3.69-.55s-1.43,2.47-.53,3.68c0,0,.6.8,1.5,2,.45.6.97,1.3,1.54,2.05.57.74,1.29,1.45,1.95,2.2,1.35,1.48,2.69,2.96,3.7,4.07.51.55.93,1.02,1.22,1.34Z"/>
        <path class="cls-2" d="M185.71,289l-3.09-1.49c-2.96-1.26-6.23-1.12-9.01.74l3.67,2.23c1.19-.29,2.54-.31,3.71.28l3.21,1.55s3.2,1.58,3.24,1.48c1.23.45,2.15,1.35,2.7,2.47l4.03,1.48c-.41-3.32-2.32-6.22-5.34-7.31-.04.1-3.12-1.42-3.12-1.42Z"/>
        <path class="cls-2" d="M183.45,303.46c-.04.1-3.6-1.63-3.6-1.63l-3.57-1.72c-1.3-.65-2.27-1.64-2.69-2.9l-3.96-2.4c-.25,3.25,1.46,6.99,5.02,8.55l3.69,1.78s3.68,1.79,3.73,1.69c3.63,1.34,7.46.54,9.76-1.78l-4.35-1.59c-1.22.48-2.66.52-4.02.02Z"/>
        <path class="cls-2" d="M174.25,296.19c.37.24.6.33.6.33,1.35.65,2.98.13,3.62-1.16.65-1.29.14-2.84-1.13-3.46,0,0-.22-.09-.57-.31-.35-.22-.86-.53-1.47-.9-1.22-.74-2.84-1.73-4.46-2.71-1.67-.92-3.16-2.1-4.3-2.96-1.14-.85-1.9-1.42-1.9-1.42-1.13-.85-2.79-.62-3.7.51-.91,1.12-.67,2.77.53,3.67,0,0,.8.6,2,1.5,1.2.9,2.78,2.14,4.53,3.11,1.71,1.04,3.42,2.08,4.7,2.86.64.39,1.18.71,1.55.94Z"/>
        <path class="cls-2" d="M206.73,299.39l3.53.54,3.53.54c1.3.12,2.44.67,3.29,1.59l4.29.22c-1.33-3.06-4-5.22-7.2-5.42l-3.39-.53-3.39-.51c-.8-.13-1.6-.08-2.37,0-.76.05-1.51.21-2.23.49-1.44.54-2.77,1.5-3.83,2.76l4.15,1.07c1.05-.57,2.33-.92,3.62-.74Z"/>
        <path class="cls-2" d="M212.69,310.88l-3.91-.59-3.91-.6c-1.44-.21-2.64-.94-3.39-2.07l-4.49-1.15c.34,1.62,1.19,3.14,2.43,4.37.62.62,1.34,1.16,2.14,1.61.8.42,1.71.65,2.66.81l4.05.62,4.05.61c3.85.27,7.3-1.67,8.85-4.55l-4.62-.23c-1.03.8-2.4,1.31-3.85,1.17Z"/>
        <path class="cls-2" d="M205.62,304.51c.26-1.45-.69-2.7-2.06-3.02,0,0-3.68-.95-7.36-1.89-1.87-.38-3.6-1.2-4.95-1.65-1.34-.49-2.23-.82-2.23-.82-1.33-.48-2.86.21-3.41,1.54-.56,1.34.14,2.84,1.55,3.36,0,0,.94.34,2.35.86,1.42.47,3.25,1.32,5.22,1.73,3.88,1,7.75,1.99,7.75,1.99,1.46.33,2.89-.72,3.14-2.12Z"/>
        <path class="cls-2" d="M242.67,295.81c-.77-.08-1.57-.13-2.37,0l-3.39.51-3.39.53c-3.2.21-5.87,2.36-7.2,5.42l4.29-.22c.84-.92,1.99-1.47,3.29-1.59l3.52-.54,3.53-.54c1.3-.18,2.57.17,3.63.74l4.15-1.07c-1.05-1.26-2.39-2.22-3.83-2.76-.72-.27-1.47-.44-2.23-.49Z"/>
        <path class="cls-2" d="M242.82,309.69l-3.91.6-3.91.59c-1.44.14-2.82-.37-3.85-1.17l-4.62.23c1.55,2.88,4.99,4.82,8.85,4.55l4.05-.61,4.05-.62c.95-.16,1.85-.39,2.66-.81.8-.45,1.52-.99,2.14-1.61,1.25-1.23,2.09-2.75,2.43-4.37l-4.49,1.15c-.75,1.13-1.95,1.86-3.39,2.07Z"/>
        <path class="cls-2" d="M234.27,305.7c-.15-1.41-1.43-2.55-2.84-2.47,0,0-3.79.19-7.59.39-3.8-.19-7.59-.39-7.59-.39-1.41-.08-2.68,1.06-2.84,2.47-.16,1.46.94,2.68,2.44,2.76,0,0,4,.2,7.99.4,4-.2,7.99-.4,7.99-.4,1.5-.08,2.59-1.3,2.44-2.76Z"/>
        <path class="cls-2" d="M261.97,289s-3.08,1.52-3.12,1.42c-3.01,1.09-4.92,3.99-5.34,7.31l4.03-1.48c.55-1.12,1.47-2.03,2.7-2.47.04.1,3.24-1.48,3.24-1.48l3.21-1.55c1.17-.58,2.52-.57,3.71-.28l3.66-2.23c-2.78-1.86-6.05-2-9.01-.74l-3.09,1.49Z"/>
        <path class="cls-2" d="M274.1,297.21c-.42,1.26-1.39,2.26-2.69,2.9l-3.57,1.72s-3.56,1.73-3.6,1.63c-1.36.5-2.8.46-4.02-.02l-4.35,1.59c2.3,2.32,6.12,3.13,9.76,1.78.04.1,3.73-1.69,3.73-1.69l3.69-1.78c3.55-1.56,5.27-5.3,5.02-8.55l-3.96,2.4Z"/>
        <path class="cls-2" d="M260.52,302.04c1.41-.52,2.1-2.02,1.55-3.36-.56-1.34-2.09-2.03-3.41-1.54,0,0-.89.33-2.23.82-1.35.44-3.08,1.26-4.95,1.65-3.68.95-7.36,1.89-7.36,1.89-1.37.31-2.32,1.57-2.06,3.02.25,1.4,1.68,2.45,3.14,2.12,0,0,3.88-1,7.75-1.99,1.97-.41,3.79-1.26,5.22-1.73,1.41-.52,2.35-.86,2.35-.86Z"/>
        <path class="cls-2" d="M281.74,283.07c.21-1.24.83-2.37,1.88-3.15,0,0,.18-.13.45-.33.27-.19.63-.46.95-.78.66-.6,1.32-1.2,1.32-1.2l2.64-2.4c.96-.88,2.23-1.28,3.5-1.3l2.88-3.18c-3.17-.98-6.39-.24-8.86,1.82l-2.54,2.31s-.63.58-1.27,1.16c-.31.3-.65.56-.91.75-.26.19-.43.32-.43.32-2.58,1.91-3.58,5.25-3.04,8.55l3.43-2.57Z"/>
        <path class="cls-2" d="M297.89,279.33c-.09,1.29-.71,2.55-1.78,3.53l-2.93,2.66s-.73.66-1.47,1.33c-.36.35-.75.64-1.05.86-.3.22-.49.37-.49.37-1.16.87-2.55,1.24-3.85,1.13l-3.71,2.77c2.86,1.57,6.74,1.25,9.84-1.07,0,0,.2-.15.51-.38.31-.23.72-.53,1.09-.89.76-.69,1.52-1.37,1.52-1.37l3.03-2.75c2.95-2.51,3.59-6.54,2.41-9.61l-3.12,3.42Z"/>
        <path class="cls-2" d="M286.22,287.78c1.2-.9,1.44-2.55.53-3.67-.91-1.12-2.57-1.35-3.7-.51,0,0-.76.57-1.9,1.42-1.14.86-2.63,2.03-4.3,2.96-1.62.99-3.25,1.97-4.46,2.71-.61.37-1.12.68-1.47.9-.35.23-.57.31-.57.31-1.27.61-1.78,2.16-1.13,3.46.65,1.29,2.27,1.82,3.62,1.16,0,0,.23-.09.6-.33.37-.23.91-.55,1.55-.94,1.28-.78,2.99-1.82,4.7-2.86,1.75-.98,3.33-2.21,4.53-3.11,1.2-.9,2-1.5,2-1.5Z"/>
        <path class="cls-2" d="M303.21,258.61c.46-.76.92-1.53.92-1.53l1.85-3.05c.68-1.12,1.76-1.86,3-2.22,0,0,.14-.23.3-.6.17-.36.41-.85.64-1.33.47-.97.93-1.93.93-1.93-3.29-.04-6.21,1.55-7.99,4.23l-1.78,2.93s-.44.74-.89,1.47c-.46.72-1.01,1.39-1.01,1.39-1.93,2.56-1.95,6.05-.5,9.07l2.57-3.44c-.15-1.25.13-2.51.91-3.56,0,0,.56-.69,1.04-1.44Z"/>
        <path class="cls-2" d="M316.73,253.41c-.25.52-.5,1.04-.69,1.43-.18.39-.33.64-.33.64.26,1.25.04,2.65-.72,3.89l-2.06,3.38s-.52.84-1.03,1.69c-.54.83-1.15,1.61-1.15,1.61-.87,1.17-2.09,1.91-3.37,2.17l-2.78,3.71c3.18.71,6.82-.69,9.12-3.8,0,0,.64-.8,1.19-1.66.53-.87,1.07-1.75,1.07-1.75l2.13-3.5c2.12-3.25,1.64-7.27-.38-9.9,0,0-.5,1.04-1.01,2.09Z"/>
        <path class="cls-2" d="M306.88,266.87c.9-1.2.66-2.85-.53-3.68-1.19-.82-2.84-.58-3.69.55,0,0-.57.76-1.42,1.9-.43.57-.92,1.24-1.46,1.95-.54.71-1.22,1.37-1.85,2.09-1.28,1.41-2.56,2.81-3.51,3.87-.48.53-.88.97-1.16,1.28-.31.28-.48.44-.48.44-1.05.95-1.09,2.58-.11,3.64.98,1.06,2.69,1.1,3.8.09,0,0,.18-.17.5-.47.29-.32.72-.79,1.22-1.34,1.01-1.11,2.35-2.59,3.7-4.07.66-.75,1.37-1.46,1.95-2.2.56-.75,1.09-1.45,1.54-2.05.9-1.2,1.5-2,1.5-2Z"/>
        <path class="cls-2" d="M314.98,234.11c.27-.85.46-1.72.46-1.72l.88-3.45c.33-1.27,1.14-2.29,2.22-2.99.13.03.74-4.22.74-4.22-1.57.44-2.97,1.26-4.03,2.35-1.15,1.08-2.06,2.4-2.45,3.96l-.85,3.32s-.19.84-.44,1.65c-.3.8-.59,1.61-.59,1.61-1.12,3-.1,6.38,2.09,8.84,0,0,.13-.24.26-.62.14-.38.32-.88.5-1.39l.74-2.01c-.5-1.15-.6-2.45-.14-3.67,0,0,.31-.84.62-1.67Z"/>
        <path class="cls-2" d="M326.84,223.01s-.67,4.58-.8,4.56c.61,1.13.8,2.53.44,3.94l-.99,3.83s-.23.97-.52,1.91c-.34.93-.68,1.86-.68,1.86-.5,1.37-1.46,2.43-2.6,3.04,0,0-.4,1.09-.8,2.17-.2.54-.4,1.09-.55,1.49-.14.41-.28.67-.28.67,3.3-.2,6.34-2.59,7.67-6.23,0,0,.35-.96.7-1.92.31-.98.54-1.97.54-1.97l1.02-3.97c.47-1.87.44-3.72-.11-5.35-.64-1.65-1.7-3.05-3.05-4.04Z"/>
        <path class="cls-2" d="M319.27,237.62c-1.37-.45-2.89.25-3.37,1.58,0,0-.33.89-.82,2.23-.24.67-.53,1.45-.84,2.28-.39.8-.8,1.66-1.21,2.51-.82,1.71-1.65,3.42-2.27,4.71-.58,1.3-1.11,2.1-1.11,2.1-.73,1.2-.32,2.79.92,3.53,1.24.74,2.89.3,3.67-.98,0,0,.55-.84,1.17-2.21.65-1.35,1.52-3.16,2.39-4.96.43-.9.87-1.8,1.27-2.65.32-.88.63-1.7.89-2.41.52-1.41.86-2.35.86-2.35.52-1.41-.18-2.93-1.56-3.38Z"/>
        <path class="cls-2" d="M320.14,216.15c.07-.4.14-.93.15-1.47.05-1.07.11-2.14.11-2.14-.82-.97-1.29-2.18-1.23-3.49l.19-3.56-.19-3.56c-.07-1.31.41-2.52,1.23-3.49,0,0-.05-1.07-.11-2.14,0-.54-.08-1.07-.15-1.47-.06-.4-.1-.66-.1-.66-2.61,1.72-4.72,4.69-4.5,7.89l.18,3.43-.18,3.43c-.22,3.2,1.89,6.17,4.5,7.9,0,0,.04-.27.1-.66Z"/>
        <path class="cls-2" d="M327.65,193.28s.04.29.11.72c.08.43.15,1,.16,1.58.06,1.16.12,2.31.12,2.31.91.91,1.52,2.2,1.59,3.65l.19,3.95-.19,3.95c-.07,1.45-.67,2.74-1.59,3.65,0,0-.06,1.16-.12,2.31-.01.58-.09,1.15-.16,1.58-.06.43-.11.72-.11.72,3.3-1.11,5.37-4.27,5.61-8.13l.2-4.08-.2-4.08c-.24-3.86-2.31-7.02-5.61-8.13Z"/>
        <path class="cls-2" d="M321.45,230.05c1.4.36,2.85-.53,3.22-1.99.36.07,2.6-15.8,2.21-15.83.08-1.5-1.04-2.76-2.49-2.81-1.45-.05-2.68,1.06-2.75,2.47.38.03-1.75,15.09-2.09,15.02-.35,1.37.5,2.77,1.9,3.13Z"/>
      </g>
      <g>
        <path class="cls-3" d="M107.49,330.97c-.06-.43-.17-.82-.34-1.17-.17-.35-.39-.66-.67-.93-.28-.27-.61-.5-.99-.68-.38-.18-.81-.31-1.29-.39-.9-.15-1.73-.06-2.48.26s-1.39.87-1.91,1.63c-.52.77-.88,1.75-1.08,2.94-.2,1.2-.19,2.24.05,3.15.24.9.66,1.63,1.28,2.18.62.55,1.4.91,2.34,1.06.86.14,1.61.11,2.27-.09.66-.2,1.19-.54,1.59-1.02.41-.49.67-1.1.78-1.83.3.09.45.14.75.23-1.84-.29-2.76-.43-4.59-.73.18-1.09.27-1.64.44-2.74,2.97.48,4.45.72,7.43,1.17-.13.87-.2,1.3-.33,2.17-.23,1.51-.76,2.76-1.59,3.74-.83.98-1.88,1.67-3.14,2.08-1.26.4-2.65.48-4.16.23-1.68-.27-3.1-.88-4.26-1.8-1.15-.93-1.97-2.11-2.44-3.55-.48-1.44-.56-3.06-.24-4.87.24-1.39.67-2.59,1.27-3.61.61-1.02,1.35-1.84,2.23-2.48s1.85-1.06,2.91-1.29c1.06-.23,2.17-.25,3.33-.06.99.16,1.9.45,2.71.87.81.42,1.51.94,2.1,1.56.59.62,1.04,1.32,1.35,2.09.32.77.47,1.6.46,2.47-1.52-.23-2.28-.35-3.8-.59Z"/>
        <path class="cls-3" d="M125.95,327.97c1.49.2,2.23.3,3.72.49-.57,4.49-.86,6.73-1.44,11.21-.16,1.26-.61,2.32-1.36,3.19-.74.86-1.71,1.49-2.9,1.86-1.19.38-2.53.46-4.02.26-1.5-.21-2.77-.65-3.81-1.34-1.04-.69-1.8-1.55-2.28-2.58-.48-1.03-.62-2.18-.44-3.43.66-4.47,1-6.71,1.66-11.18,1.49.22,2.23.33,3.72.54-.62,4.35-.93,6.53-1.56,10.88-.09.66-.03,1.26.2,1.82s.59,1.02,1.1,1.38c.51.37,1.13.6,1.86.71.74.1,1.4.04,1.98-.17.59-.22,1.06-.56,1.43-1.03.37-.47.6-1.04.68-1.69.58-4.36.87-6.54,1.45-10.9Z"/>
        <path class="cls-3" d="M143.82,335.79c-.08-.42-.21-.81-.39-1.15s-.42-.64-.71-.9c-.29-.26-.63-.47-1.02-.63-.39-.16-.82-.27-1.31-.33-.91-.1-1.72.03-2.46.39s-1.34.93-1.82,1.73c-.48.79-.79,1.79-.94,2.99-.14,1.2-.08,2.25.2,3.14.28.89.74,1.6,1.39,2.12.64.52,1.44.84,2.39.95.86.1,1.61.03,2.26-.2.64-.23,1.16-.6,1.54-1.1.38-.51.61-1.13.69-1.87.3.08.45.12.76.19-1.85-.2-2.77-.3-4.61-.5.12-1.1.19-1.65.31-2.75,2.98.34,4.48.5,7.46.8-.09.87-.13,1.31-.22,2.18-.16,1.52-.62,2.8-1.4,3.82-.78,1.02-1.79,1.77-3.03,2.23-1.24.46-2.62.61-4.13.44-1.69-.19-3.14-.72-4.33-1.59-1.19-.87-2.06-2.01-2.61-3.42-.55-1.41-.7-3.03-.48-4.85.17-1.4.54-2.62,1.09-3.67.55-1.05,1.25-1.91,2.1-2.58.85-.67,1.79-1.15,2.84-1.43,1.05-.28,2.15-.36,3.32-.23,1,.11,1.91.36,2.74.74.83.38,1.55.86,2.17,1.45.62.59,1.1,1.26,1.45,2.02.35.76.55,1.57.58,2.44-1.53-.16-2.29-.24-3.82-.4Z"/>
        <path class="cls-3" d="M162.09,331.89c1.49.12,2.24.19,3.74.3-.35,4.51-.53,6.76-.89,11.27-.1,1.27-.5,2.35-1.2,3.25-.7.9-1.63,1.57-2.8,2-1.17.43-2.5.59-4,.45-1.5-.13-2.79-.52-3.86-1.15-1.07-.63-1.87-1.45-2.4-2.46-.53-1.01-.73-2.14-.61-3.41.44-4.5.67-6.75,1.11-11.25,1.49.15,2.24.22,3.73.36-.41,4.38-.61,6.57-1.02,10.94-.06.66.03,1.26.29,1.8s.64.98,1.17,1.33c.52.34,1.15.55,1.89.61.74.07,1.39-.03,1.97-.27.57-.25,1.03-.61,1.38-1.1.34-.49.54-1.06.6-1.72.37-4.38.55-6.57.92-10.95Z"/>
        <path class="cls-3" d="M178.19,338.07c-.03-.69-.29-1.24-.8-1.65-.5-.41-1.2-.65-2.11-.71-.61-.04-1.14,0-1.57.15-.43.14-.77.35-1.01.63-.24.28-.37.61-.4.98-.03.31.02.59.15.83s.32.46.57.64c.25.18.54.35.88.49.33.14.69.27,1.08.38.63.19.95.29,1.58.48.77.22,1.47.49,2.11.81.63.32,1.18.7,1.63,1.14.45.44.8.95,1.03,1.52.23.58.34,1.23.3,1.95-.06,1.06-.4,1.97-1,2.71-.6.75-1.44,1.3-2.51,1.67-1.07.36-2.35.5-3.82.4-1.46-.1-2.72-.4-3.77-.9-1.05-.51-1.85-1.21-2.39-2.09-.54-.89-.78-1.96-.71-3.21,1.47.11,2.21.16,3.68.27,0,.59.14,1.08.42,1.49.28.41.67.73,1.18.96.51.23,1.09.37,1.75.41.65.04,1.21-.01,1.7-.16.49-.15.88-.38,1.16-.69.28-.31.44-.67.46-1.09.02-.39-.07-.73-.29-1.01-.22-.28-.55-.53-.99-.74-.44-.22-.98-.42-1.63-.62-.77-.24-1.15-.36-1.92-.61-1.49-.46-2.64-1.1-3.46-1.92-.82-.82-1.17-1.88-1.07-3.16.08-1.05.43-1.95,1.07-2.69.64-.74,1.48-1.3,2.52-1.67s2.21-.51,3.5-.43c1.31.09,2.45.38,3.4.88.96.5,1.69,1.16,2.19,1.98.5.82.74,1.75.7,2.78-1.44-.08-2.17-.12-3.61-.21Z"/>
        <path class="cls-3" d="M196.12,351.37c-2.57-.09-3.86-.15-6.42-.26.31-6.96.47-10.44.78-17.39,2.53.11,3.8.17,6.33.26,1.78.07,3.3.46,4.57,1.19,1.27.73,2.23,1.76,2.9,3.07.66,1.32.98,2.88.93,4.68-.05,1.81-.44,3.36-1.18,4.65-.74,1.28-1.78,2.26-3.13,2.91-1.34.66-2.94.95-4.78.89ZM193.65,348.12c.97.04,1.45.06,2.42.09,1.13.04,2.09-.12,2.87-.48.78-.36,1.38-.95,1.8-1.75.41-.81.64-1.86.68-3.16.04-1.29-.12-2.34-.48-3.17-.36-.83-.91-1.45-1.66-1.86-.75-.41-1.67-.64-2.79-.68-.96-.04-1.44-.05-2.4-.09-.18,4.44-.27,6.66-.44,11.09Z"/>
        <path class="cls-3" d="M207.75,351.7c.11-5.22.17-7.83.28-13.05,1.44.03,2.16.04,3.59.07-.01.91-.02,1.37-.04,2.28.06,0,.08,0,.14,0,.26-.81.68-1.41,1.26-1.82.58-.41,1.24-.61,1.99-.6.19,0,.39.02.6.04.21.03.4.06.56.1-.01,1.29-.02,1.93-.03,3.21-.17-.05-.42-.1-.72-.14-.31-.04-.59-.07-.85-.07-.55,0-1.04.1-1.47.32-.43.22-.77.54-1.03.94-.25.4-.39.87-.39,1.41-.05,2.95-.07,4.43-.12,7.39-1.51-.02-2.26-.04-3.77-.07Z"/>
        <path class="cls-3" d="M218.58,352.08c-.58,0-1.08-.21-1.5-.61-.41-.4-.62-.89-.61-1.45,0-.55.22-1.03.64-1.42.42-.39.92-.59,1.5-.58.56,0,1.06.21,1.48.6.42.4.63.88.63,1.43,0,.37-.1.72-.3,1.02s-.46.55-.78.74c-.32.18-.67.27-1.06.27Z"/>
        <path class="cls-3" d="M238.4,339.33c-.08-.68-.39-1.21-.93-1.58-.53-.37-1.25-.55-2.16-.53-.61,0-1.13.1-1.55.27-.42.17-.74.41-.96.71-.22.3-.32.64-.32,1.01,0,.31.06.58.21.81s.36.43.62.59c.26.16.57.3.91.42.34.12.71.22,1.1.29.64.14.97.21,1.61.35.78.16,1.5.37,2.16.64.66.27,1.23.61,1.72,1.01.49.4.87.88,1.15,1.44.28.55.44,1.2.46,1.92.03,1.06-.24,1.99-.77,2.79-.54.79-1.33,1.41-2.36,1.86-1.04.45-2.3.69-3.77.71-1.46.02-2.74-.18-3.83-.6-1.09-.42-1.94-1.05-2.54-1.89-.61-.84-.93-1.89-.97-3.14,1.47,0,2.21-.01,3.68-.03.05.58.23,1.07.54,1.45.31.38.73.67,1.25.86.52.19,1.11.28,1.77.27.65,0,1.21-.11,1.68-.3.48-.19.84-.45,1.1-.78.26-.33.38-.7.37-1.12,0-.39-.13-.72-.37-.98s-.59-.48-1.05-.66c-.46-.18-1.01-.34-1.67-.48-.79-.18-1.18-.27-1.96-.45-1.52-.34-2.72-.88-3.6-1.64-.88-.75-1.31-1.78-1.32-3.06,0-1.05.27-1.98.85-2.77.58-.79,1.37-1.41,2.38-1.87s2.16-.69,3.45-.71c1.31-.02,2.47.18,3.46.6.99.42,1.77,1.02,2.34,1.79.57.77.87,1.68.92,2.72-1.45.04-2.17.05-3.61.08Z"/>
        <path class="cls-3" d="M261.35,342.23c.1,1.9-.19,3.53-.87,4.9-.68,1.37-1.64,2.43-2.89,3.19-1.25.76-2.68,1.17-4.28,1.23-1.61.06-3.07-.24-4.37-.9-1.3-.66-2.34-1.65-3.12-2.96-.78-1.31-1.19-2.91-1.24-4.8-.05-1.9.27-3.52.96-4.87.69-1.35,1.65-2.4,2.88-3.14,1.23-.74,2.63-1.14,4.2-1.2,1.56-.06,2.98.23,4.27.87,1.29.64,2.33,1.61,3.12,2.91.8,1.29,1.25,2.89,1.34,4.79ZM257.51,342.41c-.06-1.23-.29-2.26-.7-3.08-.41-.83-.97-1.44-1.66-1.85-.7-.41-1.5-.59-2.41-.56-.91.04-1.69.28-2.36.74-.66.46-1.17,1.12-1.51,1.97-.35.86-.5,1.9-.46,3.13.04,1.23.26,2.26.67,3.09.41.83.96,1.45,1.66,1.86.7.41,1.52.6,2.44.56.92-.04,1.72-.29,2.39-.75.67-.46,1.17-1.13,1.51-1.99.34-.86.48-1.9.43-3.13Z"/>
        <path class="cls-3" d="M264.61,350.78c-.37-6.95-.56-10.43-.94-17.39,4.77-.26,7.16-.4,11.92-.74.08,1.21.13,1.82.21,3.03-3.28.23-4.93.34-8.21.53.1,1.66.15,2.49.24,4.14,3.06-.18,4.58-.28,7.64-.49.08,1.21.13,1.82.21,3.03-3.07.21-4.6.31-7.67.49.1,1.66.15,2.49.24,4.15,3.35-.2,5.03-.31,8.37-.54.08,1.21.13,1.82.21,3.03-4.89.34-7.34.49-12.24.76Z"/>
        <path class="cls-3" d="M278.13,335.52c-.09-1.21-.13-1.82-.22-3.03,5.81-.42,8.71-.67,14.51-1.21.11,1.21.17,1.81.28,3.02-2.17.2-3.26.3-5.43.48.49,5.73.74,8.59,1.23,14.32-1.51.13-2.27.19-3.78.31-.46-5.73-.69-8.6-1.15-14.33-2.17.17-3.26.26-5.43.42Z"/>
        <path class="cls-3" d="M311.26,338.06c.22,1.89.04,3.53-.54,4.94-.59,1.41-1.48,2.53-2.68,3.37-1.2.84-2.6,1.34-4.19,1.51-1.61.17-3.08-.03-4.43-.6s-2.45-1.49-3.32-2.74c-.86-1.25-1.38-2.83-1.56-4.71-.18-1.89.03-3.53.64-4.93.6-1.4,1.49-2.5,2.67-3.32,1.18-.82,2.55-1.31,4.12-1.48,1.56-.16,3,.03,4.32.58,1.33.56,2.43,1.45,3.32,2.69.88,1.24,1.44,2.8,1.66,4.68ZM307.44,338.49c-.14-1.22-.44-2.23-.91-3.03-.47-.8-1.06-1.38-1.78-1.74-.72-.36-1.54-.49-2.44-.4-.91.1-1.67.4-2.3.9-.63.5-1.09,1.19-1.38,2.07-.29.88-.37,1.93-.25,3.15.12,1.22.41,2.24.87,3.04.46.8,1.06,1.39,1.79,1.75.73.36,1.55.5,2.47.4s1.7-.4,2.34-.91c.64-.51,1.1-1.2,1.38-2.09.28-.88.35-1.93.22-3.16Z"/>
        <path class="cls-3" d="M313,329.08c1.84-.22,2.76-.34,4.59-.57,2.53,4.39,3.81,6.59,6.4,10.96.08-.01.13-.02.21-.03,1.35-4.9,2-7.35,3.29-12.26,1.83-.26,2.75-.39,4.58-.66,1.02,6.89,1.53,10.33,2.54,17.22-1.48.22-2.21.33-3.69.54-.64-4.49-.96-6.73-1.6-11.22-.06,0-.09.01-.15.02-1.2,4.72-1.82,7.07-3.07,11.78-1.01.14-1.51.2-2.52.34-2.46-4.23-3.67-6.35-6.08-10.6-.06,0-.09.01-.15.02.57,4.51.85,6.77,1.42,11.29-1.48.19-2.22.28-3.7.46-.84-6.91-1.26-10.37-2.09-17.28Z"/>
        <path class="cls-3" d="M352.75,332c.33,1.87.24,3.53-.27,4.97-.51,1.44-1.34,2.61-2.49,3.52-1.15.9-2.52,1.49-4.11,1.75-1.6.26-3.09.14-4.46-.35-1.38-.5-2.53-1.35-3.47-2.55-.93-1.2-1.54-2.74-1.82-4.62-.28-1.88-.16-3.53.36-4.96.52-1.43,1.35-2.58,2.48-3.47,1.13-.89,2.48-1.45,4.03-1.71,1.55-.25,3-.14,4.36.34,1.36.48,2.51,1.31,3.47,2.5.95,1.19,1.59,2.71,1.92,4.58ZM348.95,332.66c-.21-1.21-.56-2.2-1.08-2.97-.51-.77-1.14-1.31-1.88-1.63-.74-.32-1.56-.4-2.46-.26-.9.15-1.65.49-2.25,1.03-.6.54-1.02,1.25-1.26,2.15-.24.89-.27,1.95-.08,3.16.19,1.22.54,2.21,1.04,2.99.51.78,1.13,1.32,1.88,1.65.75.32,1.58.41,2.5.26.91-.15,1.68-.5,2.29-1.04.61-.54,1.03-1.26,1.26-2.16.23-.9.25-1.95.04-3.16Z"/>
      </g>
    </g>
  </g>
</svg>